# Blender v2.74 (sub 0) OBJ File: ''
# www.blender.org
mtllib house.mtl
o Back_Left_Window
v 2.254500 1.708400 -2.130000
v 2.254500 1.708400 -2.430000
v 2.254500 0.408400 -2.130000
v 2.254500 0.408400 -2.430000
v 1.254500 1.708400 -2.430000
v 1.254500 1.708400 -2.130000
v 1.254500 0.408400 -2.430000
v 1.254500 0.408400 -2.130000
vt 0.000000 1.000000
vt 0.000000 0.000000
vt 1.000000 0.000000
vt 1.000000 1.000000
vn 1.000000 0.000000 0.000000
vn -1.000000 0.000000 0.000000
vn 0.000000 1.000000 0.000000
vn 0.000000 -1.000000 0.000000
vn 0.000000 0.000000 1.000000
vn 0.000000 0.000000 -1.000000
usemtl windowMaterial
s 1
f 1/1/1 3/2/1 4/3/1 2/4/1
f 5/1/2 7/2/2 8/3/2 6/4/2
f 5/1/3 6/2/3 1/3/3 2/4/3
f 8/1/4 7/2/4 4/3/4 3/4/4
f 6/1/5 8/2/5 3/3/5 1/4/5
f 2/1/6 4/2/6 7/3/6 5/4/6
o Right_Left_Window
v 2.750000 1.708400 0.699900
v 2.450000 1.708400 0.699900
v 2.750000 0.408400 0.699900
v 2.450000 0.408400 0.699900
v 2.450000 1.708400 1.699900
v 2.750000 1.708400 1.699900
v 2.450000 0.408400 1.699900
v 2.750000 0.408400 1.699900
vt 0.000000 1.000000
vt 0.000000 0.000000
vt 1.000000 0.000000
vt 1.000000 1.000000
vn 0.000000 0.000000 -1.000000
vn 0.000000 0.000000 1.000000
vn 0.000000 1.000000 0.000000
vn 0.000000 -1.000000 0.000000
vn 1.000000 0.000000 -0.000000
vn -1.000000 0.000000 0.000000
usemtl windowMaterial
s 1
f 9/5/7 11/6/7 12/7/7 10/8/7
f 13/5/8 15/6/8 16/7/8 14/8/8
f 13/5/9 14/6/9 9/7/9 10/8/9
f 16/5/10 15/6/10 12/7/10 11/8/10
f 14/5/11 16/6/11 11/7/11 9/8/11
f 10/5/12 12/6/12 15/7/12 13/8/12
o Box1
v 0.195700 3.294551 -2.654601
v 0.111176 3.475813 -2.654601
v -2.976378 1.815388 -2.654601
v -3.060901 1.996649 -2.654601
v 0.111178 3.475812 2.745400
v 0.195701 3.294551 2.745400
v -3.060900 1.996649 2.745401
v -2.976376 1.815387 2.745401
vt 0.000000 1.000000
vt 0.000000 0.000000
vt 1.000000 0.000000
vt 1.000000 1.000000
vn -0.000000 -0.000000 -1.000000
vn 0.000000 0.000000 1.000000
vn 0.906300 0.422600 -0.000000
vn -0.906300 -0.422600 0.000000
vn 0.422600 -0.906300 -0.000000
vn -0.422600 0.906300 0.000000
usemtl tile_roofMaterial
s 1
f 17/9/13 19/10/13 20/11/13 18/12/13
f 21/9/14 23/10/14 24/11/14 22/12/14
f 21/9/15 22/10/15 17/11/15 18/12/15
f 24/9/16 23/10/16 20/11/16 19/12/16
f 22/9/17 24/10/17 19/11/17 17/12/17
f 18/9/18 20/10/18 23/11/18 21/12/18
o Right_Right_Window1
v -2.400000 1.708400 -1.497900
v -2.700000 1.708400 -1.497900
v -2.400000 0.408400 -1.497900
v -2.700000 0.408400 -1.497900
v -2.700000 1.708400 -0.497900
v -2.400000 1.708400 -0.497900
v -2.700000 0.408400 -0.497900
v -2.400000 0.408400 -0.497900
vt 0.000000 1.000000
vt 0.000000 0.000000
vt 1.000000 0.000000
vt 1.000000 1.000000
vn 0.000000 0.000000 -1.000000
vn 0.000000 0.000000 1.000000
vn 0.000000 1.000000 0.000000
vn 0.000000 -1.000000 0.000000
vn 1.000000 0.000000 -0.000000
vn -1.000000 0.000000 0.000000
usemtl windowMaterial
s 1
f 25/13/19 27/14/19 28/15/19 26/16/19
f 29/13/20 31/14/20 32/15/20 30/16/20
f 29/13/21 30/14/21 25/15/21 26/16/21
f 32/13/22 31/14/22 28/15/22 27/16/22
f 30/13/23 32/14/23 27/15/23 25/16/23
f 26/13/24 28/14/24 31/15/24 29/16/24
o Front_Left_Window
v -1.178800 1.708400 2.580000
v -1.178800 1.708400 2.280000
v -1.178800 0.408400 2.580000
v -1.178800 0.408400 2.280000
v -2.178800 1.708400 2.280000
v -2.178800 1.708400 2.580000
v -2.178800 0.408400 2.280000
v -2.178800 0.408400 2.580000
vt 0.000000 1.000000
vt 0.000000 0.000000
vt 1.000000 0.000000
vt 1.000000 1.000000
vn 1.000000 0.000000 0.000000
vn -1.000000 0.000000 0.000000
vn 0.000000 1.000000 0.000000
vn 0.000000 -1.000000 0.000000
vn 0.000000 0.000000 1.000000
vn 0.000000 0.000000 -1.000000
usemtl windowMaterial
s 1
f 33/17/25 35/18/25 36/19/25 34/20/25
f 37/17/26 39/18/26 40/19/26 38/20/26
f 37/17/27 38/18/27 33/19/27 34/20/27
f 40/17/28 39/18/28 36/19/28 35/20/28
f 38/17/29 40/18/29 35/19/29 33/20/29
f 34/17/30 36/18/30 39/19/30 37/20/30
o Right_Wall
v 2.747700 2.012900 -2.426900
v 2.497700 2.012900 -2.426900
v 2.747700 0.012900 -2.426900
v 2.497700 0.012900 -2.426900
v 2.497700 2.012900 2.573100
v 2.747700 2.012900 2.573100
v 2.497700 0.012900 2.573100
v 2.747700 0.012900 2.573100
vt 0.000000 1.000000
vt 0.000000 0.000000
vt 1.000000 0.000000
vt 1.000000 1.000000
vn 0.000000 0.000000 -1.000000
vn 0.000000 0.000000 1.000000
vn 0.000000 1.000000 0.000000
vn 0.000000 -1.000000 0.000000
vn 1.000000 0.000000 -0.000000
vn -1.000000 0.000000 0.000000
usemtl concrete_blockMaterial
s 1
f 41/21/31 43/22/31 44/23/31 42/24/31
f 45/21/32 47/22/32 48/23/32 46/24/32
f 45/21/33 46/22/33 41/23/33 42/24/33
f 48/21/34 47/22/34 44/23/34 43/24/34
f 46/21/35 48/22/35 43/23/35 41/24/35
f 42/21/36 44/22/36 47/23/36 45/24/36
o Back_Wall1
v 2.500000 2.012900 -2.172500
v 2.500000 2.012900 -2.422500
v 2.500000 0.012900 -2.172500
v 2.500000 0.012900 -2.422500
v -2.500000 2.012900 -2.422500
v -2.500000 2.012900 -2.172500
v -2.500000 0.012900 -2.422500
v -2.500000 0.012900 -2.172500
vt 0.000000 1.000000
vt 0.000000 0.000000
vt 1.000000 0.000000
vt 1.000000 1.000000
vn 1.000000 0.000000 0.000000
vn -1.000000 0.000000 0.000000
vn 0.000000 1.000000 0.000000
vn 0.000000 -1.000000 0.000000
vn 0.000000 0.000000 1.000000
vn 0.000000 0.000000 -1.000000
usemtl concrete_blockMaterial
s 1
f 49/25/37 51/26/37 52/27/37 50/28/37
f 53/25/38 55/26/38 56/27/38 54/28/38
f 53/25/39 54/26/39 49/27/39 50/28/39
f 56/25/40 55/26/40 52/27/40 51/28/40
f 54/25/41 56/26/41 51/27/41 49/28/41
f 50/25/42 52/26/42 55/27/42 53/28/42
o Front_Stoop
v 0.704600 0.159200 2.871300
v 0.704600 0.159200 2.571300
v 0.704600 0.009200 2.871300
v 0.704600 0.009200 2.571300
v -0.595400 0.159200 2.571300
v -0.595400 0.159200 2.871300
v -0.595400 0.009200 2.571300
v -0.595400 0.009200 2.871300
vt 0.000000 1.000000
vt 0.000000 0.000000
vt 1.000000 0.000000
vt 1.000000 1.000000
vn 1.000000 0.000000 0.000000
vn -1.000000 0.000000 0.000000
vn 0.000000 1.000000 0.000000
vn 0.000000 -1.000000 0.000000
vn 0.000000 0.000000 1.000000
vn 0.000000 0.000000 -1.000000
usemtl concreteMaterial
s 1
f 57/29/43 59/30/43 60/31/43 58/32/43
f 61/29/44 63/30/44 64/31/44 62/32/44
f 61/29/45 62/30/45 57/31/45 58/32/45
f 64/29/46 63/30/46 60/31/46 59/32/46
f 62/29/47 64/30/47 59/31/47 57/32/47
f 58/29/48 60/30/48 63/31/48 61/32/48
o Front_Door
v 0.551600 1.912900 2.611300
v 0.551600 1.912900 2.311300
v 0.551600 0.112900 2.611300
v 0.551600 0.112900 2.311300
v -0.448400 1.912900 2.311300
v -0.448400 1.912900 2.611300
v -0.448400 0.112900 2.311300
v -0.448400 0.112900 2.611300
vt 0.000000 1.000000
vt 0.000000 0.000000
vt 1.000000 0.000000
vt 1.000000 1.000000
vn 1.000000 0.000000 0.000000
vn -1.000000 0.000000 0.000000
vn 0.000000 1.000000 0.000000
vn 0.000000 -1.000000 0.000000
vn 0.000000 0.000000 1.000000
vn 0.000000 0.000000 -1.000000
usemtl doorMaterial
s 1
f 65/33/49 67/34/49 68/35/49 66/36/49
f 69/33/50 71/34/50 72/35/50 70/36/50
f 69/33/51 70/34/51 65/35/51 66/36/51
f 72/33/52 71/34/52 68/35/52 67/36/52
f 70/33/53 72/34/53 67/35/53 65/36/53
f 66/33/54 68/34/54 71/35/54 69/36/54
o Right_Left_Window1
v -2.400000 1.708400 0.690000
v -2.700000 1.708400 0.690000
v -2.400000 0.408400 0.690000
v -2.700000 0.408400 0.690000
v -2.700000 1.708400 1.690000
v -2.400000 1.708400 1.690000
v -2.700000 0.408400 1.690000
v -2.400000 0.408400 1.690000
vt 0.000000 1.000000
vt 0.000000 0.000000
vt 1.000000 0.000000
vt 1.000000 1.000000
vn 0.000000 0.000000 -1.000000
vn 0.000000 0.000000 1.000000
vn 0.000000 1.000000 0.000000
vn 0.000000 -1.000000 0.000000
vn 1.000000 0.000000 -0.000000
vn -1.000000 0.000000 0.000000
usemtl windowMaterial
s 1
f 73/37/55 75/38/55 76/39/55 74/40/55
f 77/37/56 79/38/56 80/39/56 78/40/56
f 77/37/57 78/38/57 73/39/57 74/40/57
f 80/37/58 79/38/58 76/39/58 75/40/58
f 78/37/59 80/38/59 75/39/59 73/40/59
f 74/37/60 76/38/60 79/39/60 77/40/60
o Box2
v 0.072922 3.475812 -2.654601
v -0.011601 3.294551 -2.654601
v 3.245000 1.996649 -2.654601
v 3.160476 1.815387 -2.654601
v -0.011600 3.294551 2.745401
v 0.072924 3.475813 2.745401
v 3.160478 1.815388 2.745400
v 3.245001 1.996649 2.745400
vt 0.000000 1.000000
vt 0.000000 0.000000
vt 1.000000 0.000000
vt 1.000000 1.000000
vn 0.000000 0.000000 -1.000000
vn 0.000000 -0.000000 1.000000
vn -0.906300 0.422600 0.000000
vn 0.906300 -0.422600 -0.000000
vn 0.422600 0.906300 -0.000000
vn -0.422600 -0.906300 0.000000
usemtl tile_roofMaterial
s 1
f 81/41/61 83/42/61 84/43/61 82/44/61
f 85/41/62 87/42/62 88/43/62 86/44/62
f 85/41/63 86/42/63 81/43/63 82/44/63
f 88/41/64 87/42/64 84/43/64 83/44/64
f 86/41/65 88/42/65 83/43/65 81/44/65
f 82/41/66 84/42/66 87/43/66 85/44/66
o Patio
v 0.965500 0.159200 -2.189200
v 0.965500 0.159200 -4.189200
v 0.965500 0.009200 -2.189200
v 0.965500 0.009200 -4.189200
v -1.034500 0.159200 -4.189200
v -1.034500 0.159200 -2.189200
v -1.034500 0.009200 -4.189200
v -1.034500 0.009200 -2.189200
vt 0.000000 1.000000
vt 0.000000 0.000000
vt 1.000000 0.000000
vt 1.000000 1.000000
vn 1.000000 0.000000 0.000000
vn -1.000000 0.000000 0.000000
vn 0.000000 1.000000 0.000000
vn 0.000000 -1.000000 0.000000
vn 0.000000 0.000000 1.000000
vn 0.000000 0.000000 -1.000000
usemtl concreteMaterial
s 1
f 89/45/67 91/46/67 92/47/67 90/48/67
f 93/45/68 95/46/68 96/47/68 94/48/68
f 93/45/69 94/46/69 89/47/69 90/48/69
f 96/45/70 95/46/70 92/47/70 91/48/70
f 94/45/71 96/46/71 91/47/71 89/48/71
f 90/45/72 92/46/72 95/47/72 93/48/72
o Back_Door
v 0.750000 1.803500 -2.143900
v 0.750000 1.803500 -2.443900
v 0.750000 0.103500 -2.143900
v 0.750000 0.103500 -2.443900
v -0.750000 1.803500 -2.443900
v -0.750000 1.803500 -2.143900
v -0.750000 0.103500 -2.443900
v -0.750000 0.103500 -2.143900
vt 0.000000 1.000000
vt 0.000000 0.000000
vt 1.000000 0.000000
vt 1.000000 1.000000
vn 1.000000 0.000000 0.000000
vn -1.000000 0.000000 0.000000
vn 0.000000 1.000000 0.000000
vn 0.000000 -1.000000 0.000000
vn 0.000000 0.000000 1.000000
vn 0.000000 0.000000 -1.000000
usemtl french_doorsMaterial
s 1
f 97/49/73 99/50/73 100/51/73 98/52/73
f 101/49/74 103/50/74 104/51/74 102/52/74
f 101/49/75 102/50/75 97/51/75 98/52/75
f 104/49/76 103/50/76 100/51/76 99/52/76
f 102/49/77 104/50/77 99/51/77 97/52/77
f 98/49/78 100/50/78 103/51/78 101/52/78
o front_triangle
v 2.725000 2.015000 2.500000
v 0.075000 3.245000 2.500000
v 0.075000 2.015000 2.500000
v -2.558297 2.015000 2.521394
v 0.091648 3.245000 2.489303
v 0.091648 2.015000 2.489303
vn 0.000000 0.000000 1.000000
vn 0.012100 0.000000 0.999900
usemtl concrete_blockMaterial
s 1
f 106//79 107//79 105//79
f 108//80 110//80 109//80
o Floor
v 2.747065 0.092400 2.537755
v 2.747065 0.092400 -2.403355
v 2.747065 0.042400 2.537755
v 2.747065 0.042400 -2.403355
v -2.676265 0.092400 -2.403355
v -2.676265 0.092400 2.537755
v -2.676265 0.042400 -2.403355
v -2.676265 0.042400 2.537755
vt 0.000000 1.000000
vt 0.000000 0.000000
vt 1.000000 0.000000
vt 1.000000 1.000000
vn 1.000000 0.000000 0.000000
vn -1.000000 0.000000 0.000000
vn 0.000000 1.000000 0.000000
vn 0.000000 -1.000000 0.000000
vn 0.000000 0.000000 1.000000
vn 0.000000 0.000000 -1.000000
usemtl wood_floorMaterial
s 1
f 111/53/81 113/54/81 114/55/81 112/56/81
f 115/53/82 117/54/82 118/55/82 116/56/82
f 115/53/83 116/54/83 111/55/83 112/56/83
f 118/53/84 117/54/84 114/55/84 113/56/84
f 116/53/85 118/54/85 113/55/85 111/56/85
f 112/53/86 114/54/86 117/55/86 115/56/86
o Ceiling
v 2.747065 1.983600 2.537755
v 2.747065 1.983600 -2.403355
v 2.747065 1.933600 2.537755
v 2.747065 1.933600 -2.403355
v -2.676265 1.983600 -2.403355
v -2.676265 1.983600 2.537755
v -2.676265 1.933600 -2.403355
v -2.676265 1.933600 2.537755
vt 0.000000 1.000000
vt 0.000000 0.000000
vt 1.000000 0.000000
vt 1.000000 1.000000
vn 1.000000 0.000000 0.000000
vn -1.000000 0.000000 0.000000
vn 0.000000 1.000000 0.000000
vn 0.000000 -1.000000 0.000000
vn 0.000000 0.000000 1.000000
vn 0.000000 0.000000 -1.000000
usemtl c9c9c9
s 1
f 119/57/87 121/58/87 122/59/87 120/60/87
f 123/57/88 125/58/88 126/59/88 124/60/88
f 123/57/89 124/58/89 119/59/89 120/60/89
f 126/57/90 125/58/90 122/59/90 121/60/90
f 124/57/91 126/58/91 121/59/91 119/60/91
f 120/57/92 122/58/92 125/59/92 123/60/92
o Front_Right_Window
v 2.300200 1.708400 2.580000
v 2.300200 1.708400 2.280000
v 2.300200 0.408400 2.580000
v 2.300200 0.408400 2.280000
v 1.300200 1.708400 2.280000
v 1.300200 1.708400 2.580000
v 1.300200 0.408400 2.280000
v 1.300200 0.408400 2.580000
vt 0.000000 1.000000
vt 0.000000 0.000000
vt 1.000000 0.000000
vt 1.000000 1.000000
vn 1.000000 0.000000 0.000000
vn -1.000000 0.000000 0.000000
vn 0.000000 1.000000 0.000000
vn 0.000000 -1.000000 0.000000
vn 0.000000 0.000000 1.000000
vn 0.000000 0.000000 -1.000000
usemtl windowMaterial
s 1
f 127/61/93 129/62/93 130/63/93 128/64/93
f 131/61/94 133/62/94 134/63/94 132/64/94
f 131/61/95 132/62/95 127/63/95 128/64/95
f 134/61/96 133/62/96 130/63/96 129/64/96
f 132/61/97 134/62/97 129/63/97 127/64/97
f 128/61/98 130/62/98 133/63/98 131/64/98
o Right_Right_Window
v 2.750000 1.708400 -1.497900
v 2.450000 1.708400 -1.497900
v 2.750000 0.408400 -1.497900
v 2.450000 0.408400 -1.497900
v 2.450000 1.708400 -0.497900
v 2.750000 1.708400 -0.497900
v 2.450000 0.408400 -0.497900
v 2.750000 0.408400 -0.497900
vt 0.000000 1.000000
vt 0.000000 0.000000
vt 1.000000 0.000000
vt 1.000000 1.000000
vn 0.000000 0.000000 -1.000000
vn 0.000000 0.000000 1.000000
vn 0.000000 1.000000 0.000000
vn 0.000000 -1.000000 0.000000
vn 1.000000 0.000000 -0.000000
vn -1.000000 0.000000 0.000000
usemtl windowMaterial
s 1
f 135/65/99 137/66/99 138/67/99 136/68/99
f 139/65/100 141/66/100 142/67/100 140/68/100
f 139/65/101 140/66/101 135/67/101 136/68/101
f 142/65/102 141/66/102 138/67/102 137/68/102
f 140/65/103 142/66/103 137/67/103 135/68/103
f 136/65/104 138/66/104 141/67/104 139/68/104
o Left_Wall
v -2.441700 2.012900 -2.426900
v -2.691700 2.012900 -2.426900
v -2.441700 0.012900 -2.426900
v -2.691700 0.012900 -2.426900
v -2.691700 2.012900 2.573100
v -2.441700 2.012900 2.573100
v -2.691700 0.012900 2.573100
v -2.441700 0.012900 2.573100
vt 0.000000 1.000000
vt 0.000000 0.000000
vt 1.000000 0.000000
vt 1.000000 1.000000
vn 0.000000 0.000000 -1.000000
vn 0.000000 0.000000 1.000000
vn 0.000000 1.000000 0.000000
vn 0.000000 -1.000000 0.000000
vn 1.000000 0.000000 -0.000000
vn -1.000000 0.000000 0.000000
usemtl concrete_blockMaterial
s 1
f 143/69/105 145/70/105 146/71/105 144/72/105
f 147/69/106 149/70/106 150/71/106 148/72/106
f 147/69/107 148/70/107 143/71/107 144/72/107
f 150/69/108 149/70/108 146/71/108 145/72/108
f 148/69/109 150/70/109 145/71/109 143/72/109
f 144/69/110 146/70/110 149/71/110 147/72/110
o Back_Right_Window
v -1.178800 1.708400 -2.130000
v -1.178800 1.708400 -2.430000
v -1.178800 0.408400 -2.130000
v -1.178800 0.408400 -2.430000
v -2.178800 1.708400 -2.430000
v -2.178800 1.708400 -2.130000
v -2.178800 0.408400 -2.430000
v -2.178800 0.408400 -2.130000
vt 0.000000 1.000000
vt 0.000000 0.000000
vt 1.000000 0.000000
vt 1.000000 1.000000
vn 1.000000 0.000000 0.000000
vn -1.000000 0.000000 0.000000
vn 0.000000 1.000000 0.000000
vn 0.000000 -1.000000 0.000000
vn 0.000000 0.000000 1.000000
vn 0.000000 0.000000 -1.000000
usemtl windowMaterial
s 1
f 151/73/111 153/74/111 154/75/111 152/76/111
f 155/73/112 157/74/112 158/75/112 156/76/112
f 155/73/113 156/74/113 151/75/113 152/76/113
f 158/73/114 157/74/114 154/75/114 153/76/114
f 156/73/115 158/74/115 153/75/115 151/76/115
f 152/73/116 154/74/116 157/75/116 155/76/116
o back_triangle
v 2.735000 2.015000 -2.400000
v 0.085000 3.245000 -2.400000
v 0.085000 2.015000 -2.400000
v -2.548297 2.015000 -2.378607
v 0.101648 3.245000 -2.410697
v 0.101648 2.015000 -2.410697
vn 0.000000 0.000000 -1.000000
vn -0.012100 0.000000 -0.999900
usemtl concrete_blockMaterial
s 1
f 159//117 161//117 160//117
f 163//118 164//118 162//118
o Back_Wall
v 2.500000 2.012900 2.567600
v 2.500000 2.012900 2.317600
v 2.500000 0.012900 2.567600
v 2.500000 0.012900 2.317600
v -2.500000 2.012900 2.317600
v -2.500000 2.012900 2.567600
v -2.500000 0.012900 2.317600
v -2.500000 0.012900 2.567600
vt 0.000000 1.000000
vt 0.000000 0.000000
vt 1.000000 0.000000
vt 1.000000 1.000000
vn 1.000000 0.000000 0.000000
vn -1.000000 0.000000 0.000000
vn 0.000000 1.000000 0.000000
vn 0.000000 -1.000000 0.000000
vn 0.000000 0.000000 1.000000
vn 0.000000 0.000000 -1.000000
usemtl concrete_blockMaterial
s 1
f 165/77/119 167/78/119 168/79/119 166/80/119
f 169/77/120 171/78/120 172/79/120 170/80/120
f 169/77/121 170/78/121 165/79/121 166/80/121
f 172/77/122 171/78/122 168/79/122 167/80/122
f 170/77/123 172/78/123 167/79/123 165/80/123
f 166/77/124 168/78/124 171/79/124 169/80/124
