# Blender v2.74 (sub 0) OBJ File: ''
# www.blender.org
mtllib skyscraper.mtl
o Box1
v 0.576750 1.209400 0.524100
v 0.576750 1.209400 0.324100
v 0.576750 -0.011600 0.524100
v 0.576750 -0.011600 0.324100
v -0.810350 1.209400 0.324100
v -0.810350 1.209400 0.524100
v -0.810350 -0.011600 0.324100
v -0.810350 -0.011600 0.524100
vt 0.000000 1.000000
vt 0.000000 0.000000
vt 1.000000 0.000000
vt 1.000000 1.000000
vn 1.000000 0.000000 0.000000
vn -1.000000 0.000000 0.000000
vn 0.000000 1.000000 0.000000
vn 0.000000 -1.000000 0.000000
vn 0.000000 0.000000 1.000000
vn 0.000000 0.000000 -1.000000
usemtl revolving_doorMaterial
s 1
f 1/1/1 3/2/1 4/3/1 2/4/1
f 5/1/2 7/2/2 8/3/2 6/4/2
f 5/1/3 6/2/3 1/3/3 2/4/3
f 8/1/4 7/2/4 4/3/4 3/4/4
f 6/1/5 8/2/5 3/3/5 1/4/5
f 2/1/6 4/2/6 7/3/6 5/4/6
o Cylinder
v -0.017000 10.337600 -0.006240
v -0.012421 10.337600 -0.006949
v -0.008160 10.337600 -0.009035
v -0.004500 10.337600 -0.012352
v -0.001689 10.337600 -0.016670
v 0.000079 10.337600 -0.021697
v 0.000680 10.337600 -0.027100
v 0.000079 10.337600 -0.032503
v -0.001689 10.337600 -0.037530
v -0.004500 10.337600 -0.041848
v -0.008160 10.337600 -0.045165
v -0.012421 10.337600 -0.047251
v -0.017000 10.337600 -0.047960
v -0.021579 10.337600 -0.047251
v -0.025840 10.337600 -0.045165
v -0.029500 10.337600 -0.041848
v -0.032311 10.337600 -0.037530
v -0.034079 10.337600 -0.032503
v -0.034680 10.337600 -0.027100
v -0.034079 10.337600 -0.021697
v -0.032311 10.337600 -0.016670
v -0.029500 10.337600 -0.012352
v -0.025840 10.337600 -0.009035
v -0.021579 10.337600 -0.006949
v -0.017000 9.337600 -0.006240
v -0.012421 9.337600 -0.006949
v -0.008160 9.337600 -0.009035
v -0.004500 9.337600 -0.012352
v -0.001689 9.337600 -0.016670
v 0.000079 9.337600 -0.021697
v 0.000680 9.337600 -0.027100
v 0.000079 9.337600 -0.032503
v -0.001689 9.337600 -0.037530
v -0.004500 9.337600 -0.041848
v -0.008160 9.337600 -0.045165
v -0.012421 9.337600 -0.047251
v -0.017000 9.337600 -0.047960
v -0.021579 9.337600 -0.047251
v -0.025840 9.337600 -0.045165
v -0.029500 9.337600 -0.041848
v -0.032311 9.337600 -0.037530
v -0.034079 9.337600 -0.032503
v -0.034680 9.337600 -0.027100
v -0.034079 9.337600 -0.021697
v -0.032311 9.337600 -0.016670
v -0.029500 9.337600 -0.012352
v -0.025840 9.337600 -0.009035
v -0.021579 9.337600 -0.006949
v -0.017000 10.337600 -0.027100
v -0.017000 9.337600 -0.027100
vt 0.000000 1.000000
vt 0.000000 0.000000
vt 0.041667 0.000000
vt 0.041667 1.000000
vt 0.083333 0.000000
vt 0.083333 1.000000
vt 0.125000 0.000000
vt 0.125000 1.000000
vt 0.166667 0.000000
vt 0.166667 1.000000
vt 0.208333 0.000000
vt 0.208333 1.000000
vt 0.250000 0.000000
vt 0.250000 1.000000
vt 0.291667 0.000000
vt 0.291667 1.000000
vt 0.333333 0.000000
vt 0.333333 1.000000
vt 0.375000 0.000000
vt 0.375000 1.000000
vt 0.416667 0.000000
vt 0.416667 1.000000
vt 0.458333 0.000000
vt 0.458333 1.000000
vt 0.500000 0.000000
vt 0.500000 1.000000
vt 0.541667 0.000000
vt 0.541667 1.000000
vt 0.583333 0.000000
vt 0.583333 1.000000
vt 0.625000 0.000000
vt 0.625000 1.000000
vt 0.666667 0.000000
vt 0.666667 1.000000
vt 0.708333 0.000000
vt 0.708333 1.000000
vt 0.750000 0.000000
vt 0.750000 1.000000
vt 0.791667 0.000000
vt 0.791667 1.000000
vt 0.833333 0.000000
vt 0.833333 1.000000
vt 0.875000 0.000000
vt 0.875000 1.000000
vt 0.916667 0.000000
vt 0.916667 1.000000
vt 0.958333 0.000000
vt 0.958333 1.000000
vt 1.000000 0.000000
vt 1.000000 1.000000
vn 0.000000 0.000000 1.000000
vn 0.299800 0.000000 0.954000
vn 0.561100 0.000000 0.827700
vn 0.761100 0.000000 0.648700
vn 0.897100 0.000000 0.441800
vn 0.974900 0.000000 0.222600
vn 1.000000 0.000000 0.000000
vn 0.974900 0.000000 -0.222600
vn 0.897100 0.000000 -0.441800
vn 0.761100 0.000000 -0.648700
vn 0.561100 0.000000 -0.827700
vn 0.299800 0.000000 -0.954000
vn 0.000000 0.000000 -1.000000
vn -0.299800 0.000000 -0.954000
vn -0.561100 0.000000 -0.827700
vn -0.761100 0.000000 -0.648700
vn -0.897100 0.000000 -0.441800
vn -0.974900 0.000000 -0.222600
vn -1.000000 0.000000 0.000000
vn -0.974900 0.000000 0.222600
vn -0.897100 0.000000 0.441800
vn -0.761100 0.000000 0.648700
vn -0.561100 0.000000 0.827700
vn -0.299800 0.000000 0.954000
vn 0.000000 1.000000 0.000000
vn 0.000000 1.000000 -0.000100
vn 0.000000 1.000000 0.000100
vn 0.000000 -1.000000 -0.000000
vn 0.000000 -1.000000 0.000100
vn 0.000000 -1.000000 -0.000100
usemtl b0b0b0
s 1
f 9/5/7 33/6/7 34/7/8 10/8/8
f 10/8/8 34/7/8 35/9/9 11/10/9
f 11/10/9 35/9/9 36/11/10 12/12/10
f 12/12/10 36/11/10 37/13/11 13/14/11
f 13/14/11 37/13/11 38/15/12 14/16/12
f 14/16/12 38/15/12 39/17/13 15/18/13
f 15/18/13 39/17/13 40/19/14 16/20/14
f 16/20/14 40/19/14 41/21/15 17/22/15
f 17/22/15 41/21/15 42/23/16 18/24/16
f 18/24/16 42/23/16 43/25/17 19/26/17
f 19/26/17 43/25/17 44/27/18 20/28/18
f 20/28/18 44/27/18 45/29/19 21/30/19
f 21/30/19 45/29/19 46/31/20 22/32/20
f 22/32/20 46/31/20 47/33/21 23/34/21
f 23/34/21 47/33/21 48/35/22 24/36/22
f 24/36/22 48/35/22 49/37/23 25/38/23
f 25/38/23 49/37/23 50/39/24 26/40/24
f 26/40/24 50/39/24 51/41/25 27/42/25
f 27/42/25 51/41/25 52/43/26 28/44/26
f 28/44/26 52/43/26 53/45/27 29/46/27
f 29/46/27 53/45/27 54/47/28 30/48/28
f 30/48/28 54/47/28 55/49/29 31/50/29
f 31/50/29 55/49/29 56/51/30 32/52/30
f 32/52/30 56/51/30 33/53/7 9/54/7
f 9/6/31 10/7/31 57/5/31
f 10/7/31 11/9/31 57/5/31
f 11/9/31 12/11/31 57/5/31
f 12/11/31 13/13/31 57/5/31
f 13/13/31 14/15/32 57/5/31
f 14/15/32 15/17/31 57/5/31
f 15/17/31 16/19/33 57/5/31
f 16/19/33 17/21/31 57/5/31
f 17/21/31 18/23/31 57/5/31
f 18/23/31 19/25/31 57/5/31
f 19/25/31 20/27/31 57/5/31
f 20/27/31 21/29/31 57/5/31
f 21/29/31 22/31/31 57/5/31
f 22/31/31 23/33/31 57/5/31
f 23/33/31 24/35/31 57/5/31
f 24/35/31 25/37/31 57/5/31
f 25/37/31 26/39/33 57/5/31
f 26/39/33 27/41/31 57/5/31
f 27/41/31 28/43/32 57/5/31
f 28/43/32 29/45/31 57/5/31
f 29/45/31 30/47/31 57/5/31
f 30/47/31 31/49/31 57/5/31
f 31/49/31 32/51/31 57/5/31
f 32/51/31 9/53/31 57/5/31
f 34/8/34 33/5/34 58/6/34
f 35/10/34 34/8/34 58/6/34
f 36/12/35 35/10/34 58/6/34
f 37/14/35 36/12/35 58/6/34
f 38/16/36 37/14/35 58/6/34
f 39/18/34 38/16/36 58/6/34
f 40/20/35 39/18/34 58/6/34
f 41/22/34 40/20/35 58/6/34
f 42/24/34 41/22/34 58/6/34
f 43/26/34 42/24/34 58/6/34
f 44/28/34 43/26/34 58/6/34
f 45/30/34 44/28/34 58/6/34
f 46/32/34 45/30/34 58/6/34
f 47/34/34 46/32/34 58/6/34
f 48/36/36 47/34/34 58/6/34
f 49/38/36 48/36/36 58/6/34
f 50/40/35 49/38/36 58/6/34
f 51/42/34 50/40/35 58/6/34
f 52/44/36 51/42/34 58/6/34
f 53/46/34 52/44/36 58/6/34
f 54/48/34 53/46/34 58/6/34
f 55/50/34 54/48/34 58/6/34
f 56/52/34 55/50/34 58/6/34
f 33/54/34 56/52/34 58/6/34
o Back
v 1.055740 9.388500 -2.156400
v 1.055740 9.388500 -2.206400
v 1.055740 -0.011700 -2.156400
v 1.055740 -0.011700 -2.206400
v -1.331540 9.388500 -2.206400
v -1.331540 9.388500 -2.156400
v -1.331540 -0.011700 -2.206400
v -1.331540 -0.011700 -2.156400
vt 0.000000 1.000000
vt 0.000000 0.000000
vt 1.000000 0.000000
vt 1.000000 1.000000
vn 1.000000 0.000000 0.000000
vn -1.000000 0.000000 0.000000
vn 0.000000 1.000000 0.000000
vn 0.000000 -1.000000 0.000000
vn 0.000000 0.000000 1.000000
vn 0.000000 0.000000 -1.000000
usemtl skyscraperMaterial
s 1
f 59/55/37 61/56/37 62/57/37 60/58/37
f 63/55/38 65/56/38 66/57/38 64/58/38
f 63/55/39 64/56/39 59/57/39 60/58/39
f 66/55/40 65/56/40 62/57/40 61/58/40
f 64/55/41 66/56/41 61/57/41 59/58/41
f 60/55/42 62/56/42 65/57/42 63/58/42
o Floor
v 1.014200 0.043250 0.468300
v 1.014200 0.043250 -2.172500
v 1.014200 -0.015650 0.468300
v 1.014200 -0.015650 -2.172500
v -1.276200 0.043250 -2.172500
v -1.276200 0.043250 0.468300
v -1.276200 -0.015650 -2.172500
v -1.276200 -0.015650 0.468300
vt 0.000000 1.000000
vt 0.000000 0.000000
vt 1.000000 0.000000
vt 1.000000 1.000000
vn 1.000000 0.000000 0.000000
vn -1.000000 0.000000 0.000000
vn 0.000000 1.000000 0.000000
vn 0.000000 -1.000000 0.000000
vn 0.000000 0.000000 1.000000
vn 0.000000 0.000000 -1.000000
usemtl 1e1e1e
s 1
f 67/59/43 69/60/43 70/61/43 68/62/43
f 71/59/44 73/60/44 74/61/44 72/62/44
f 71/59/45 72/60/45 67/61/45 68/62/45
f 74/59/46 73/60/46 70/61/46 69/62/46
f 72/59/47 74/60/47 69/61/47 67/62/47
f 68/59/48 70/60/48 73/61/48 71/62/48
o roof
v 1.041300 9.363500 0.470400
v 1.041300 9.363500 -2.179600
v 1.041300 9.313500 0.470400
v 1.041300 9.313500 -2.179600
v -1.258700 9.363500 -2.179600
v -1.258700 9.363500 0.470400
v -1.258700 9.313500 -2.179600
v -1.258700 9.313500 0.470400
vt 0.000000 1.000000
vt 0.000000 0.000000
vt 1.000000 0.000000
vt 1.000000 1.000000
vn 1.000000 0.000000 0.000000
vn -1.000000 0.000000 0.000000
vn 0.000000 1.000000 0.000000
vn 0.000000 -1.000000 0.000000
vn 0.000000 0.000000 1.000000
vn 0.000000 0.000000 -1.000000
usemtl 5e6270
s 1
f 75/63/49 77/64/49 78/65/49 76/66/49
f 79/63/50 81/64/50 82/65/50 80/66/50
f 79/63/51 80/64/51 75/65/51 76/66/51
f 82/63/52 81/64/52 78/65/52 77/66/52
f 80/63/53 82/64/53 77/65/53 75/66/53
f 76/63/54 78/64/54 81/65/54 79/66/54
o Left
v -1.234407 9.387050 0.550000
v -1.234407 9.387050 -2.150000
v -1.234407 -0.010250 0.550000
v -1.234407 -0.010250 -2.150000
v -1.325593 9.387050 -2.150000
v -1.325593 9.387050 0.550000
v -1.325593 -0.010250 -2.150000
v -1.325593 -0.010250 0.550000
vt 0.000000 1.000000
vt 0.000000 0.000000
vt 1.000000 0.000000
vt 1.000000 1.000000
vn 1.000000 0.000000 0.000000
vn -1.000000 0.000000 0.000000
vn 0.000000 1.000000 0.000000
vn 0.000000 -1.000000 0.000000
vn 0.000000 0.000000 1.000000
vn 0.000000 0.000000 -1.000000
usemtl skyscraperMaterial
s 1
f 83/67/55 85/68/55 86/69/55 84/70/55
f 87/67/56 89/68/56 90/69/56 88/70/56
f 87/67/57 88/68/57 83/69/57 84/70/57
f 90/67/58 89/68/58 86/69/58 85/70/58
f 88/67/59 90/68/59 85/69/59 83/70/59
f 84/67/60 86/68/60 89/69/60 87/70/60
o Front
v 1.055740 9.388500 0.519500
v 1.055740 9.388500 0.469500
v 1.055740 -0.011700 0.519500
v 1.055740 -0.011700 0.469500
v -1.331540 9.388500 0.469500
v -1.331540 9.388500 0.519500
v -1.331540 -0.011700 0.469500
v -1.331540 -0.011700 0.519500
vt 0.000000 1.000000
vt 0.000000 0.000000
vt 1.000000 0.000000
vt 1.000000 1.000000
vn 1.000000 0.000000 0.000000
vn -1.000000 0.000000 0.000000
vn 0.000000 1.000000 0.000000
vn 0.000000 -1.000000 0.000000
vn 0.000000 0.000000 1.000000
vn 0.000000 0.000000 -1.000000
usemtl skyscraperMaterial
s 1
f 91/71/61 93/72/61 94/73/61 92/74/61
f 95/71/62 97/72/62 98/73/62 96/74/62
f 95/71/63 96/72/63 91/73/63 92/74/63
f 98/71/64 97/72/64 94/73/64 93/74/64
f 96/71/65 98/72/65 93/73/65 91/74/65
f 92/71/66 94/72/66 97/73/66 95/74/66
o Right
v 1.059593 9.387050 0.550000
v 1.059593 9.387050 -2.150000
v 1.059593 -0.010250 0.550000
v 1.059593 -0.010250 -2.150000
v 0.968408 9.387050 -2.150000
v 0.968408 9.387050 0.550000
v 0.968408 -0.010250 -2.150000
v 0.968408 -0.010250 0.550000
vt 0.000000 1.000000
vt 0.000000 0.000000
vt 1.000000 0.000000
vt 1.000000 1.000000
vn 1.000000 0.000000 0.000000
vn -1.000000 0.000000 0.000000
vn 0.000000 1.000000 0.000000
vn 0.000000 -1.000000 0.000000
vn 0.000000 0.000000 1.000000
vn 0.000000 0.000000 -1.000000
usemtl skyscraperMaterial
s 1
f 99/75/67 101/76/67 102/77/67 100/78/67
f 103/75/68 105/76/68 106/77/68 104/78/68
f 103/75/69 104/76/69 99/77/69 100/78/69
f 106/75/70 105/76/70 102/77/70 101/78/70
f 104/75/71 106/76/71 101/77/71 99/78/71
f 100/75/72 102/76/72 105/77/72 103/78/72
o Box2
v 0.576350 1.209400 -2.102660
v 0.576350 1.209400 -2.182940
v 0.576350 -0.011600 -2.102660
v 0.576350 -0.011600 -2.182940
v -0.810750 1.209400 -2.182940
v -0.810750 1.209400 -2.102660
v -0.810750 -0.011600 -2.182940
v -0.810750 -0.011600 -2.102660
vt 0.000000 1.000000
vt 0.000000 0.000000
vt 1.000000 0.000000
vt 1.000000 1.000000
vn 1.000000 0.000000 0.000000
vn -1.000000 0.000000 0.000000
vn 0.000000 1.000000 0.000000
vn 0.000000 -1.000000 0.000000
vn 0.000000 0.000000 1.000000
vn 0.000000 0.000000 -1.000000
usemtl relevatorMaterial
s 1
f 107/79/73 109/80/73 110/81/73 108/82/73
f 111/79/74 113/80/74 114/81/74 112/82/74
f 111/79/75 112/80/75 107/81/75 108/82/75
f 114/79/76 113/80/76 110/81/76 109/82/76
f 112/79/77 114/80/77 109/81/77 107/82/77
f 108/79/78 110/80/78 113/81/78 111/82/78
